# xmcd
#
# Track frame offsets:
#	150
#	17364
#	38918
#	57492
#	76655
#	95477
#	111063
#	132488
#	149179
#	163466
#	182969
#	199822
#	217971
#	235940
#	254348
#	268629
#	285454
#	305463
#	326048
#
# Disc length: 4638
#
# Revision: 2
# Processed by: cddbd v1.5.1PL0 Copyright (c) Steve Scherf et al.
# Submitted via: audiograbber 1.82.01
# Normalized: r1:DSETVAR1,TDELIM( - )
#
DISCID=1e121c13
DTITLE=Various Artist - LOVE Radio 106.6 5 vol.
DYEAR=1900
DGENRE=Blues
TTITLE0=Patrick Swayze - She Like The Wind
TTITLE1=Mylene Farmer and Seal - Les Mots
TTITLE2=Orange Blue - The Sun On Your Face
TTITLE3=Sarah Connor - From Sarah With Love
TTITLE4=Darren Hayez - Insatiable
TTITLE5=Enya - May It Be
TTITLE6=Michael Jackson - Cry
TTITLE7=Shakira - The One
TTITLE8=Enrique Iglesias - Maybe
TTITLE9=Anastacia - You'll Never Be Alone
TTITLE10=Chris Isaak - Always Got Tonight
TTITLE11=Keyt Whinslet - What It
TTITLE12=Ray Vega - Best of Goodbye
TTITLE13=Dido - There With Me
TTITLE14=Marc Antony - She Mends Me
TTITLE15=Sandra - Forever
TTITLE16=Five - Closer To Me
TTITLE17=Brandy - Nothing
TTITLE18=Michele Williams - Heard A Word
EXTD=
EXTT0=
EXTT1=
EXTT2=
EXTT3=
EXTT4=
EXTT5=
EXTT6=
EXTT7=
EXTT8=
EXTT9=
EXTT10=
EXTT11=
EXTT12=
EXTT13=
EXTT14=
EXTT15=
EXTT16=
EXTT17=
EXTT18=
PLAYORDER=
